<svg width="157" height="668" viewBox="0 0 157 668" fill="none" xmlns="http://www.w3.org/2000/svg">
<path d="M61.2673 221.2H57.4273L52.8673 228.664L48.3073 221.2H44.4673V238H48.3073V228.232L52.6513 235.36H53.0833L57.4273 228.232V238H61.2673V221.2ZM69.7948 238.336C73.3228 238.336 76.1548 235.576 76.1548 232C76.1548 228.424 73.3228 225.664 69.7948 225.664C66.2668 225.664 63.4348 228.424 63.4348 232C63.4348 235.576 66.2668 238.336 69.7948 238.336ZM69.7948 234.832C68.2348 234.832 67.0348 233.704 67.0348 232C67.0348 230.296 68.2348 229.168 69.7948 229.168C71.3548 229.168 72.5548 230.296 72.5548 232C72.5548 233.704 71.3548 234.832 69.7948 234.832ZM85.2231 225.664C83.6391 225.664 82.4391 226.24 81.7911 227.128V226H78.1911V238H81.7911V231.448C81.7911 229.744 82.7031 228.976 84.0231 228.976C85.1751 228.976 86.1111 229.672 86.1111 231.16V238H89.7111V230.632C89.7111 227.392 87.6471 225.664 85.2231 225.664ZM93.9833 224.944C95.1593 224.944 96.1433 223.96 96.1433 222.784C96.1433 221.608 95.1593 220.624 93.9833 220.624C92.8073 220.624 91.8233 221.608 91.8233 222.784C91.8233 223.96 92.8073 224.944 93.9833 224.944ZM92.1833 238H95.7833V226H92.1833V238ZM105.45 229.456V226H102.978V222.64L99.3777 223.72V226H97.4577V229.456H99.3777V233.704C99.3777 237.064 100.746 238.48 105.45 238V234.736C103.866 234.832 102.978 234.736 102.978 233.704V229.456H105.45ZM113.014 238.336C116.542 238.336 119.374 235.576 119.374 232C119.374 228.424 116.542 225.664 113.014 225.664C109.486 225.664 106.654 228.424 106.654 232C106.654 235.576 109.486 238.336 113.014 238.336ZM113.014 234.832C111.454 234.832 110.254 233.704 110.254 232C110.254 230.296 111.454 229.168 113.014 229.168C114.574 229.168 115.774 230.296 115.774 232C115.774 233.704 114.574 234.832 113.014 234.832ZM125.01 228.136V226H121.41V238H125.01V232.576C125.01 230.2 127.122 229.6 128.61 229.84V225.76C127.098 225.76 125.49 226.528 125.01 228.136Z" fill="#15356E"/>
<path d="M9.68647 663.336C12.7585 663.336 15.4465 661.824 16.8865 659.448L13.5745 657.528C12.8545 658.824 11.3905 659.592 9.68647 659.592C6.71047 659.592 4.79047 657.6 4.79047 654.6C4.79047 651.6 6.71047 649.608 9.68647 649.608C11.3905 649.608 12.8305 650.376 13.5745 651.672L16.8865 649.752C15.4225 647.376 12.7345 645.864 9.68647 645.864C4.62247 645.864 0.950469 649.656 0.950469 654.6C0.950469 659.544 4.62247 663.336 9.68647 663.336ZM24.4433 663.336C27.9713 663.336 30.8033 660.576 30.8033 657C30.8033 653.424 27.9713 650.664 24.4433 650.664C20.9153 650.664 18.0833 653.424 18.0833 657C18.0833 660.576 20.9153 663.336 24.4433 663.336ZM24.4433 659.832C22.8833 659.832 21.6833 658.704 21.6833 657C21.6833 655.296 22.8833 654.168 24.4433 654.168C26.0033 654.168 27.2033 655.296 27.2033 657C27.2033 658.704 26.0033 659.832 24.4433 659.832ZM46.2795 650.664C44.5755 650.664 43.4715 651.288 42.7995 652.248C42.1275 651.24 41.0715 650.664 39.6555 650.664C38.0475 650.664 36.9915 651.288 36.4395 652.104V651H32.8395V663H36.4395V656.232C36.4395 654.816 37.1115 653.976 38.3115 653.976C39.4635 653.976 40.0395 654.744 40.0395 655.944V663H43.6395V656.232C43.6395 654.816 44.3115 653.976 45.5115 653.976C46.6635 653.976 47.2395 654.744 47.2395 655.944V663H50.8395V655.632C50.8395 652.632 49.0395 650.664 46.2795 650.664ZM66.7405 650.664C65.0365 650.664 63.9325 651.288 63.2605 652.248C62.5885 651.24 61.5325 650.664 60.1165 650.664C58.5085 650.664 57.4525 651.288 56.9005 652.104V651H53.3005V663H56.9005V656.232C56.9005 654.816 57.5725 653.976 58.7725 653.976C59.9245 653.976 60.5005 654.744 60.5005 655.944V663H64.1005V656.232C64.1005 654.816 64.7725 653.976 65.9725 653.976C67.1245 653.976 67.7005 654.744 67.7005 655.944V663H71.3005V655.632C71.3005 652.632 69.5005 650.664 66.7405 650.664ZM81.5134 651V657.552C81.5134 659.256 80.6014 660.024 79.2814 660.024C78.1294 660.024 77.1934 659.328 77.1934 657.84V651H73.5934V658.368C73.5934 661.608 75.6574 663.336 78.0814 663.336C79.6654 663.336 80.8654 662.76 81.5134 661.872V663H85.1134V651H81.5134ZM94.7856 650.664C93.2016 650.664 92.0016 651.24 91.3536 652.128V651H87.7536V663H91.3536V656.448C91.3536 654.744 92.2656 653.976 93.5856 653.976C94.7376 653.976 95.6736 654.672 95.6736 656.16V663H99.2736V655.632C99.2736 652.392 97.2096 650.664 94.7856 650.664ZM103.546 649.944C104.722 649.944 105.706 648.96 105.706 647.784C105.706 646.608 104.722 645.624 103.546 645.624C102.37 645.624 101.386 646.608 101.386 647.784C101.386 648.96 102.37 649.944 103.546 649.944ZM101.746 663H105.346V651H101.746V663ZM113.74 663.336C116.092 663.336 118.132 662.112 119.164 660.24L116.02 658.44C115.636 659.28 114.748 659.784 113.692 659.784C112.132 659.784 110.98 658.656 110.98 657C110.98 655.344 112.132 654.216 113.692 654.216C114.748 654.216 115.612 654.72 116.02 655.56L119.164 653.736C118.132 651.888 116.068 650.664 113.74 650.664C110.092 650.664 107.38 653.424 107.38 657C107.38 660.576 110.092 663.336 113.74 663.336ZM129.091 651V652.128C128.299 651.216 127.123 650.664 125.515 650.664C122.371 650.664 119.779 653.424 119.779 657C119.779 660.576 122.371 663.336 125.515 663.336C127.123 663.336 128.299 662.784 129.091 661.872V663H132.691V651H129.091ZM126.235 659.928C124.579 659.928 123.379 658.8 123.379 657C123.379 655.2 124.579 654.072 126.235 654.072C127.891 654.072 129.091 655.2 129.091 657C129.091 658.8 127.891 659.928 126.235 659.928ZM142.364 654.456V651H139.892V647.64L136.292 648.72V651H134.372V654.456H136.292V658.704C136.292 662.064 137.66 663.48 142.364 663V659.736C140.78 659.832 139.892 659.736 139.892 658.704V654.456H142.364ZM147.384 658.44H155.904C156 657.984 156.048 657.504 156.048 657C156.048 653.376 153.456 650.664 149.952 650.664C146.16 650.664 143.568 653.424 143.568 657C143.568 660.576 146.112 663.336 150.216 663.336C152.496 663.336 154.272 662.496 155.448 660.864L152.568 659.208C152.088 659.736 151.248 660.12 150.264 660.12C148.944 660.12 147.84 659.688 147.384 658.44ZM147.312 655.752C147.648 654.528 148.56 653.856 149.928 653.856C151.008 653.856 152.088 654.36 152.472 655.752H147.312Z" fill="#15356E"/>
<path d="M41.9877 443.896V440.2H31.7877V457H35.6277V450.832H41.8677V447.136H35.6277V443.896H41.9877ZM52.8484 445V446.128C52.0564 445.216 50.8804 444.664 49.2724 444.664C46.1284 444.664 43.5364 447.424 43.5364 451C43.5364 454.576 46.1284 457.336 49.2724 457.336C50.8804 457.336 52.0564 456.784 52.8484 455.872V457H56.4484V445H52.8484ZM49.9924 453.928C48.3364 453.928 47.1364 452.8 47.1364 451C47.1364 449.2 48.3364 448.072 49.9924 448.072C51.6484 448.072 52.8484 449.2 52.8484 451C52.8484 452.8 51.6484 453.928 49.9924 453.928ZM64.8495 457.336C67.2015 457.336 69.2415 456.112 70.2735 454.24L67.1295 452.44C66.7455 453.28 65.8575 453.784 64.8015 453.784C63.2415 453.784 62.0895 452.656 62.0895 451C62.0895 449.344 63.2415 448.216 64.8015 448.216C65.8575 448.216 66.7215 448.72 67.1295 449.56L70.2735 447.736C69.2415 445.888 67.1775 444.664 64.8495 444.664C61.2015 444.664 58.4895 447.424 58.4895 451C58.4895 454.576 61.2015 457.336 64.8495 457.336ZM73.5223 443.944C74.6983 443.944 75.6823 442.96 75.6823 441.784C75.6823 440.608 74.6983 439.624 73.5223 439.624C72.3463 439.624 71.3623 440.608 71.3623 441.784C71.3623 442.96 72.3463 443.944 73.5223 443.944ZM71.7223 457H75.3223V445H71.7223V457ZM77.9567 457H81.5567V439.48H77.9567V457ZM85.9911 443.944C87.1671 443.944 88.1511 442.96 88.1511 441.784C88.1511 440.608 87.1671 439.624 85.9911 439.624C84.8151 439.624 83.8311 440.608 83.8311 441.784C83.8311 442.96 84.8151 443.944 85.9911 443.944ZM84.1911 457H87.7911V445H84.1911V457ZM97.4575 448.456V445H94.9855V441.64L91.3855 442.72V445H89.4655V448.456H91.3855V452.704C91.3855 456.064 92.7535 457.48 97.4575 457V453.736C95.8735 453.832 94.9855 453.736 94.9855 452.704V448.456H97.4575ZM107.973 445V446.128C107.181 445.216 106.005 444.664 104.397 444.664C101.253 444.664 98.6614 447.424 98.6614 451C98.6614 454.576 101.253 457.336 104.397 457.336C106.005 457.336 107.181 456.784 107.973 455.872V457H111.573V445H107.973ZM105.117 453.928C103.461 453.928 102.261 452.8 102.261 451C102.261 449.2 103.461 448.072 105.117 448.072C106.773 448.072 107.973 449.2 107.973 451C107.973 452.8 106.773 453.928 105.117 453.928ZM121.247 448.456V445H118.775V441.64L115.175 442.72V445H113.255V448.456H115.175V452.704C115.175 456.064 116.543 457.48 121.247 457V453.736C119.663 453.832 118.775 453.736 118.775 452.704V448.456H121.247ZM126.266 452.44H134.786C134.882 451.984 134.93 451.504 134.93 451C134.93 447.376 132.338 444.664 128.834 444.664C125.042 444.664 122.45 447.424 122.45 451C122.45 454.576 124.994 457.336 129.098 457.336C131.378 457.336 133.154 456.496 134.33 454.864L131.45 453.208C130.97 453.736 130.13 454.12 129.146 454.12C127.826 454.12 126.722 453.688 126.266 452.44ZM126.194 449.752C126.53 448.528 127.442 447.856 128.81 447.856C129.89 447.856 130.97 448.36 131.354 449.752H126.194Z" fill="#15356E"/>
<line x1="79.5" y1="44" x2="79.5" y2="106" stroke="#2A2B2C" stroke-dasharray="2 2"/>
<line x1="79.5" y1="256" x2="79.5" y2="318" stroke="#2A2B2C" stroke-dasharray="2 2"/>
<line x1="79.5" y1="481" x2="79.5" y2="543" stroke="#2A2B2C" stroke-dasharray="2 2"/>
<path fill-rule="evenodd" clip-rule="evenodd" d="M106.422 204H66.1128C64.436 204 63.0758 202.678 63.0758 201.048V116.952C63.0758 115.322 64.436 114 66.1128 114H106.424C108.101 114 109.461 115.322 109.461 116.952V201.048C109.461 202.678 108.101 204 106.422 204Z" stroke="#182E40" stroke-width="3.65469"/>
<path d="M63.0743 123.188H109.461" stroke="#182E40" stroke-width="2.03038"/>
<path d="M63.0743 194.854H109.461" stroke="#182E40" stroke-width="2.03038"/>
<path d="M82.6492 198.651H89.8874" stroke="black" stroke-width="2.03038" stroke-linecap="round"/>
<path d="M17 155.938L44.9878 156.214" stroke="#0C9DE0" stroke-width="2.03038" stroke-linecap="round"/>
<path d="M39.4656 134.747L51.7751 143.774" stroke="#0C9DE0" stroke-width="2.03038" stroke-linecap="round"/>
<path d="M36.8826 178.344L49.284 169.489" stroke="#0C9DE0" stroke-width="2.03038" stroke-linecap="round"/>
<path fill-rule="evenodd" clip-rule="evenodd" d="M92.6816 167.956H91.1299C85.6017 167.956 81.105 163.585 81.105 158.211V138.546C81.105 133.172 85.6017 128.801 91.1299 128.801H127.79C133.318 128.801 137.815 133.172 137.815 138.546V158.211C137.815 163.585 133.318 167.956 127.79 167.956H109.954L92.5745 175.981L92.6816 167.956Z" fill="white"/>
<mask id="mask0_350_85" style="mask-type:alpha" maskUnits="userSpaceOnUse" x="78" y="126" width="62" height="54">
<path d="M78.9185 126.676H140V179.364H78.9185V126.676Z" fill="white"/>
</mask>
<g mask="url(#mask0_350_85)">
<path fill-rule="evenodd" clip-rule="evenodd" d="M127.79 126.676H91.1299C84.3969 126.676 78.9185 132.001 78.9185 138.546V158.211C78.9185 164.539 84.0395 169.728 90.4664 170.064L90.4333 172.541L90.3413 179.364L96.6823 176.436L110.445 170.08H127.789C134.522 170.08 140 164.755 140 158.21V138.546C140.002 132.001 134.523 126.676 127.79 126.676ZM127.79 130.927C132.119 130.927 135.628 134.338 135.628 138.546V158.211C135.628 162.42 132.119 165.831 127.79 165.831H109.461L94.8064 172.597L94.8968 165.831H91.1299C86.8006 165.831 83.2915 162.42 83.2915 158.211V138.546C83.2915 134.338 86.8006 130.927 91.1299 130.927H127.79Z" fill="#15356E"/>
</g>
<path fill-rule="evenodd" clip-rule="evenodd" d="M109.037 135.39L94.7958 159.304C94.6073 159.621 94.8425 160.016 95.218 160.016H123.7C124.077 160.016 124.313 159.621 124.123 159.304L109.881 135.39C109.694 135.075 109.225 135.075 109.037 135.39Z" fill="#0C9DE0"/>
<path fill-rule="evenodd" clip-rule="evenodd" d="M108.624 155.496H110.284V153.836H108.624V155.496ZM108.402 143.85H110.488L109.851 152.62H109.024L108.402 143.85Z" fill="white"/>
<mask id="mask1_350_85" style="mask-type:alpha" maskUnits="userSpaceOnUse" x="32" y="554" width="92" height="80">
<path d="M32 554.386H123.549V634H32V554.386Z" fill="white"/>
</mask>
<g mask="url(#mask1_350_85)">
<path fill-rule="evenodd" clip-rule="evenodd" d="M104.803 594.897C100.357 599.216 95.9079 603.536 91.4679 607.864C91.1964 608.127 90.9916 608.457 90.6365 608.907C89.9691 608.205 89.4962 607.724 89.0421 607.227C88.4464 606.573 87.7209 606.414 86.8588 606.585C83.9312 607.16 81.246 606.578 78.7947 604.934C78.6991 604.869 78.6137 604.793 78.4413 604.659C78.7008 604.584 78.8766 604.506 79.061 604.485C85.5 603.765 91.0513 601.202 95.698 596.829C98.5658 594.129 101.357 591.354 104.184 588.612C104.411 588.393 104.646 588.182 104.937 587.915C105.532 589.08 105.809 590.256 105.995 591.447C106.311 593.452 106.289 593.454 104.803 594.897ZM76.5499 601.162C73.9193 601.245 73.1272 601.404 70.8842 602.415C67.4342 599.062 64.0133 595.736 60.5855 592.405C62.8525 591.395 64.1362 589.542 64.3239 587.001C68.0248 586.605 69.988 584.589 70.4181 581.131C74.5065 580.26 75.7459 579.057 76.4765 575.216C79.1122 574.982 81.1624 573.799 82.0944 571.273C83.0213 568.756 82.3163 566.553 80.3361 564.701C80.4625 564.546 80.5427 564.427 80.6434 564.327C82.5809 562.441 84.5201 560.557 86.4611 558.674C87.1405 558.016 87.9462 557.709 88.9005 557.939C90.8038 558.401 91.4559 560.557 90.0903 561.985C88.9756 563.151 87.7823 564.248 86.6267 565.379C86.4167 565.585 86.1965 565.784 86.0189 566.014C85.4488 566.761 85.5273 567.668 86.1982 568.298C86.8435 568.904 87.7328 568.969 88.4822 568.441C88.7212 568.274 88.9295 568.06 89.1412 567.856C90.3259 566.713 91.4713 565.53 92.7004 564.433C94.1616 563.131 96.4132 563.835 96.8315 565.691C97.05 566.66 96.6522 567.436 95.9523 568.111C94.1531 569.846 92.3658 571.589 90.5768 573.333C90.3668 573.537 90.1466 573.739 89.9759 573.975C89.4689 574.675 89.5645 575.615 90.1773 576.201C90.7816 576.778 91.7683 576.853 92.4699 576.353C92.7089 576.184 92.9172 575.972 93.1288 575.768C94.923 574.03 96.7188 572.293 98.5027 570.544C99.2299 569.831 100.077 569.493 101.094 569.745C102.782 570.163 103.498 572.112 102.477 573.494C102.27 573.774 102.006 574.016 101.755 574.262C99.9861 575.985 98.2193 577.709 96.4405 579.422C95.9984 579.848 95.6724 580.325 95.7133 580.945C95.7577 581.592 96.0718 582.108 96.6898 582.401C97.2992 582.69 97.9086 582.657 98.4736 582.299C98.7195 582.143 98.926 581.922 99.136 581.718C100.93 579.98 102.723 578.238 104.512 576.496C105.03 575.99 105.602 575.607 106.372 575.577C107.395 575.537 108.177 575.942 108.68 576.788C109.208 577.674 109.134 578.566 108.532 579.401C108.346 579.659 108.107 579.885 107.874 580.109C103.175 584.679 98.4651 589.237 93.7758 593.817C89.8479 597.652 85.1654 600.059 79.6601 600.907C78.6376 601.066 77.5895 601.129 76.5499 601.162ZM63.9552 608.363C59.8258 604.344 55.6196 600.25 51.4817 596.222C52.6852 595.053 53.9757 593.8 55.2151 592.598C59.341 596.607 63.5523 600.699 67.6817 604.712C66.497 605.87 65.227 607.115 63.9552 608.363ZM52.6084 581.584C53.6002 580.585 55.1041 580.552 56.1983 581.57C57.4855 582.768 58.7436 583.999 59.9778 585.249C60.7476 586.031 60.932 586.973 60.4506 587.968C60.0051 588.887 59.2267 589.348 58.0863 589.509C57.5281 589.219 56.8777 589.023 56.4271 588.62C55.1383 587.467 53.9092 586.248 52.6955 585.019C51.6832 583.99 51.6729 582.524 52.6084 581.584ZM56.0584 573.094C57.0331 572.137 58.5353 572.087 59.5868 573.082C61.7633 575.141 63.904 577.238 66.0327 579.343C66.8162 580.117 66.9904 581.066 66.5175 582.065C66.0771 582.992 65.2918 583.446 63.8767 583.463C63.5933 583.317 62.931 583.13 62.4906 582.718C60.3243 580.689 58.2024 578.618 56.0993 576.528C55.0819 575.516 55.1007 574.034 56.0584 573.094ZM62.7534 566.756C63.6445 566.313 64.539 566.379 65.3687 566.947C65.5377 567.063 65.6913 567.204 65.8381 567.346C67.8627 569.309 69.8821 571.274 71.9067 573.235C72.4547 573.766 72.8353 574.365 72.82 575.146C72.7961 576.123 72.3574 576.879 71.4475 577.311C70.5462 577.737 69.6465 577.659 68.8357 577.073C68.5045 576.834 68.2229 576.526 67.9275 576.239C66.0737 574.439 64.2249 572.634 62.3659 570.84C61.818 570.311 61.4271 569.727 61.4236 568.945C61.4168 567.953 61.8572 567.202 62.7534 566.756ZM68.706 560.851C69.7473 559.867 71.4116 559.89 72.4239 560.902L78.6137 567.092C79.626 568.104 79.6021 569.722 78.5608 570.705C78.0504 571.188 77.3898 571.427 76.7291 571.427C76.0429 571.427 75.3584 571.168 74.8428 570.652L68.653 564.462C67.6407 563.45 67.6646 561.833 68.706 560.851ZM122.415 606.084C118.419 602.182 114.416 598.287 110.396 594.409C109.966 593.995 109.769 593.582 109.732 592.984C109.665 591.919 109.563 590.836 109.291 589.808C108.882 588.25 108.315 586.731 107.757 585.012C108.781 584.05 109.978 583.038 111.036 581.907C114.124 578.604 112.432 573.336 107.975 572.266C107.519 572.157 107.05 572.104 106.57 572.021C106.451 570.442 105.927 569.055 104.778 567.935C103.612 566.797 102.176 566.247 100.531 566.162C100.112 562.584 98.0742 560.61 94.515 560.225C94.3187 559.47 94.2145 558.744 93.9448 558.082C92.3504 554.187 87.2549 553.136 84.1036 556.063C82.1866 557.845 80.3413 559.701 78.4618 561.521C78.2365 561.738 77.9975 561.944 77.6561 562.254C77.4222 561.974 77.2549 561.73 77.0466 561.527C76.0139 560.524 75.0204 559.474 73.921 558.545C72.0979 557.004 69.9675 556.679 67.7381 557.525C65.5377 558.361 64.2744 559.995 63.945 562.287C63.9125 562.508 63.8562 562.727 63.8135 562.937C60.1519 563.355 58.1597 565.342 57.7586 568.809C53.1376 569.141 50.4609 573.388 52.4223 577.621C52.3267 577.679 52.2345 577.758 52.127 577.798C48.0591 579.346 46.9922 584.604 50.3039 587.625C50.9338 588.199 51.5312 588.808 52.1372 589.406C52.2943 589.562 52.4257 589.743 52.6596 590.018C52.3831 590.232 52.1287 590.392 51.9187 590.596C45.6334 596.697 39.3514 602.801 33.0694 608.907C32.8372 609.133 32.5948 609.352 32.3968 609.604C31.8164 610.343 31.8813 611.262 32.5351 611.891C33.1889 612.52 34.1295 612.578 34.8925 612.016C35.1281 611.841 35.3347 611.627 35.5446 611.423C39.6996 607.389 43.8512 603.352 48.0062 599.318C48.2281 599.102 48.4654 598.903 48.578 598.8C52.8508 602.95 57.0604 607.041 61.4697 611.325C61.2495 611.466 60.9064 611.614 60.6589 611.855C54.2847 618.034 47.9191 624.221 41.5535 630.41C41.3213 630.635 41.0806 630.856 40.8809 631.106C40.3363 631.79 40.3756 632.725 40.9543 633.337C41.5552 633.974 42.5709 634.087 43.31 633.563C43.6207 633.342 43.887 633.062 44.1602 632.797C53.0164 624.194 61.8675 615.589 70.7288 606.989C71.2119 606.522 71.7582 606.114 72.2771 605.682C72.668 605.356 73.0231 605.374 73.4635 605.672C74.6602 606.483 75.8944 607.243 77.1149 608.021C79.8257 609.751 82.7909 610.526 86.0258 610.201C86.7154 610.131 87.178 610.319 87.6628 610.793C95.2575 618.203 102.873 625.594 110.486 632.987C110.739 633.233 110.99 633.488 111.28 633.684C111.999 634.168 112.873 634.084 113.492 633.51C114.138 632.911 114.245 632.025 113.726 631.297C113.525 631.015 113.262 630.77 113.011 630.524C108.776 626.404 104.537 622.288 100.302 618.17C100.075 617.949 99.8615 617.717 99.5815 617.43C100.118 616.924 100.633 616.486 101.085 615.992C101.353 615.698 101.604 615.341 101.71 614.97C101.925 614.218 101.562 613.493 100.894 613.115C100.235 612.74 99.4313 612.793 98.8185 613.321C98.221 613.834 97.6696 614.398 97.2002 614.842C95.8584 613.545 94.5645 612.296 93.4446 611.214C98.2551 606.538 103.134 601.796 107.902 597.159C109.083 598.312 110.356 599.555 111.697 600.862C111.266 601.255 110.749 601.693 110.273 602.169C109.412 603.03 109.375 604.053 110.148 604.78C110.911 605.498 111.903 605.468 112.767 604.642C113.274 604.158 113.716 603.607 114.313 602.945C115.044 603.723 115.607 604.359 116.212 604.956C117.591 606.319 118.975 607.679 120.387 609.01C121.403 609.967 122.541 609.828 123.337 608.706C123.402 608.615 123.477 608.534 123.549 608.447V607.404C123.173 606.963 122.83 606.488 122.415 606.084Z" fill="#182E40"/>
</g>
<path d="M37.4172 546.73L47.0535 556.222" stroke="#0C9DE0" stroke-width="3.54864" stroke-linecap="round"/>
<path d="M55.338 545V553.348" stroke="#0C9DE0" stroke-width="2.83892" stroke-linecap="round"/>
<path d="M33.6959 563.877H42.2346" stroke="#0C9DE0" stroke-width="2.83892" stroke-linecap="round"/>
<path d="M123.223 548.301L113.636 557.837" stroke="#0C9DE0" stroke-width="3.54864" stroke-linecap="round"/>
<path d="M126 565.701L117.412 565.859" stroke="#0C9DE0" stroke-width="2.83892" stroke-linecap="round"/>
<path d="M106.159 546.091L107.086 554.388" stroke="#0C9DE0" stroke-width="2.83892" stroke-linecap="round"/>
<path fill-rule="evenodd" clip-rule="evenodd" d="M78.7934 388.664C88.8165 388.664 96.9417 396.574 96.9417 406.332C96.9417 416.09 88.8165 424 78.7934 424C68.7704 424 60.6451 416.09 60.6451 406.332C60.6451 396.574 68.7704 388.664 78.7934 388.664Z" stroke="#15356E" stroke-width="6.09752" stroke-linecap="round"/>
<path fill-rule="evenodd" clip-rule="evenodd" d="M48.8043 351.279H36.0794C33.2734 351.279 31 349.064 31 346.334V333.945C31 331.213 33.2749 329 36.0794 329H48.8043C51.6102 329 53.8837 331.215 53.8837 333.945V346.334C53.8852 349.066 51.6102 351.279 48.8043 351.279Z" stroke="#182E40" stroke-width="3.78467" stroke-linecap="round"/>
<path fill-rule="evenodd" clip-rule="evenodd" d="M85.3619 351.279H72.637C69.8311 351.279 67.5576 349.064 67.5576 346.334V333.945C67.5576 331.213 69.8326 329 72.637 329H85.3619C88.1679 329 90.4413 331.215 90.4413 333.945V346.334C90.4428 349.066 88.1679 351.279 85.3619 351.279Z" stroke="#182E40" stroke-width="3.78467" stroke-linecap="round"/>
<path fill-rule="evenodd" clip-rule="evenodd" d="M121.921 351.574H109.196C106.39 351.574 104.116 349.359 104.116 346.628V334.24C104.116 331.508 106.391 329.295 109.196 329.295H121.921C124.727 329.295 127 331.51 127 334.24V346.628C127 349.359 124.725 351.574 121.921 351.574Z" stroke="#182E40" stroke-width="3.78467" stroke-linecap="round"/>
<path d="M69.1309 383.632C69.1309 374.754 57.1406 356.122 47.6713 356.122" stroke="#0C9DE0" stroke-width="2.10259" stroke-linecap="round"/>
<path d="M88.3655 383.312C88.3655 374.434 101.026 356.122 110.495 356.122" stroke="#0C9DE0" stroke-width="2.10259" stroke-linecap="round"/>
<path d="M78.7936 356.12V381.712" stroke="#0C9DE0" stroke-width="2.10259" stroke-linecap="round"/>
<path d="M69.1311 383.633L65.9253 381.95" stroke="#0C9DE0" stroke-width="2.10259" stroke-linecap="round"/>
<path d="M88.3655 383.429L91.3253 381.23" stroke="#0C9DE0" stroke-width="2.10259" stroke-linecap="round"/>
<path d="M69.1311 383.647L71.5146 380.59" stroke="#0C9DE0" stroke-width="2.10259" stroke-linecap="round"/>
<path d="M88.1845 383.311L85.8175 380.271" stroke="#0C9DE0" stroke-width="2.10259" stroke-linecap="round"/>
<path d="M76.0359 379.39L78.7936 381.713" stroke="#0C9DE0" stroke-width="2.10259" stroke-linecap="round"/>
<path d="M81.5437 379.23L78.7936 381.713" stroke="#0C9DE0" stroke-width="2.10259" stroke-linecap="round"/>
<path fill-rule="evenodd" clip-rule="evenodd" d="M145.39 10.6658V9.96042H145.876C146.12 9.96042 146.411 9.99556 146.411 10.287C146.411 10.6368 146.144 10.6658 145.841 10.6658H145.39ZM146.814 10.316C146.814 9.82644 146.511 9.62229 145.918 9.62229H144.987V12.0362H145.39V11.004H145.77L146.404 12.0362H146.861L146.173 10.9749C146.541 10.9341 146.814 10.7534 146.814 10.316ZM145.829 12.5898C144.773 12.5898 144.121 11.7795 144.121 10.7884C144.121 9.72719 144.868 8.98682 145.829 8.98682C146.778 8.98682 147.525 9.72719 147.525 10.7884C147.525 11.8552 146.778 12.5898 145.829 12.5898ZM145.829 8.60768C144.655 8.60768 143.647 9.47671 143.647 10.7884C143.647 12.0303 144.554 12.969 145.829 12.969C146.992 12.969 148 12.1003 148 10.7884C148 9.47671 146.992 8.60768 145.829 8.60768ZM130.758 25.3979H130.713C128.648 25.3979 127.446 23.8237 127.446 21.4553C127.439 18.331 129.195 13.3145 132.691 13.3145C135.096 13.3145 135.927 15.2749 135.927 17.1571C135.927 20.5999 134.056 25.3979 130.758 25.3979ZM133.522 8.71365C126.158 8.71365 121.136 14.531 121.136 21.5785C121.136 26.6579 124.666 30 129.939 30H129.982C137.115 30 142.328 24.5531 142.328 17.1089C142.328 12.4516 139.095 8.71365 133.522 8.71365ZM109.233 29.5422H115.368L121.117 0H114.974L109.233 29.5422ZM100.21 18.1497C99.2934 23.1272 97.0035 25.1397 95.2047 25.1397C93.5352 25.1397 92.7117 23.7803 92.7173 21.7841C92.7207 18.0312 95.5648 13.296 99.4852 13.296C100.095 13.296 100.623 13.3652 101.089 13.4695L100.21 18.1497ZM86.3169 22.9031C86.3169 27.1609 88.8809 30 92.5953 30C94.9978 30 97.6503 28.9 99.5995 25.5273H99.7026C99.5938 26.9679 99.4796 28.3543 99.4324 29.5422H105.07C104.998 26.9967 105.396 22.9934 105.903 20.3905L107.983 9.74039C106.3 9.19214 103.643 8.71365 101.164 8.71365C90.9522 8.71365 86.3169 16.0473 86.3169 22.9031ZM71.5655 25.437C70.1508 25.437 69.2945 24.6507 69.2429 23.2186C69.188 22.3471 69.3349 21.6071 69.4727 20.9424L69.8158 19.2875C70.5363 15.7625 72.7078 13.6123 74.8687 13.6123C76.7198 13.6123 77.5612 15.1231 77.5612 17.0869C77.5612 20.6207 75.059 25.437 71.5655 25.437ZM77.7454 8.71365C75.191 8.71365 72.8912 9.82346 71.3701 11.5995L71.2854 11.5954L73.7165 0H67.5638L63.3578 20.556C63.0966 21.7769 62.8975 23.0387 62.8975 24.293C62.8724 27.9263 65.3449 30 70.2886 30C79.589 30 84 22.4318 84 15.8202C84 12.1845 82.0614 8.71365 77.7454 8.71365ZM54.8355 14.8414C54.8355 16.6865 52.482 17.3292 47.7607 17.2816C48.1612 15.4232 49.7932 13.1304 52.6105 13.1304C53.981 13.1304 54.8355 13.8382 54.8355 14.8018V14.8414ZM53.3601 8.71365C45.865 8.71365 41.289 15.1735 41.289 21.3612C41.289 26.6896 44.3409 29.9792 50.2667 29.9792C52.5643 29.9792 55.5997 29.572 58.0241 28.3744L57.5966 24.0074C55.9471 24.8022 54.0031 25.296 51.7804 25.296C50.0022 25.296 48.6283 24.771 47.8291 23.7552C47.3996 23.1771 47.1848 22.2701 47.1659 21.6902C55.4732 21.9099 60.5978 20.006 60.5978 14.8414C60.5906 11.04 57.574 8.71365 53.3601 8.71365ZM38.0503 1.49864L33.1635 13.8977C32.0402 16.9282 30.9746 19.9712 30.0013 22.8817H29.9166C30.0705 20.1165 30.1606 17.3182 30.1956 13.9676L30.2965 1.49864H23.5341L18.4807 13.9966C17.1509 17.394 16.117 20.2678 15.1023 23.0295H15.0159C15.1153 20.4876 15.1818 17.2895 15.2091 13.8886L15.1923 1.49864H9L10.0898 29.5422H16.9069L21.7455 18.2852C23.1727 14.8231 24.1666 11.7985 25.2083 8.77659H25.2984C25.1127 11.9532 25.0189 14.8169 25.0575 18.1082L25.2372 29.5422H31.9442L44.5023 1.49864H38.0503Z" fill="#0C9DE0"/>
</svg>
