<svg width="1038" height="463" viewBox="0 0 1038 463" fill="none" xmlns="http://www.w3.org/2000/svg">
<path d="M65.2673 273.2H61.4273L56.8673 280.664L52.3073 273.2H48.4673V290H52.3073V280.232L56.6513 287.36H57.0833L61.4273 280.232V290H65.2673V273.2ZM73.7948 290.336C77.3228 290.336 80.1548 287.576 80.1548 284C80.1548 280.424 77.3228 277.664 73.7948 277.664C70.2668 277.664 67.4348 280.424 67.4348 284C67.4348 287.576 70.2668 290.336 73.7948 290.336ZM73.7948 286.832C72.2348 286.832 71.0348 285.704 71.0348 284C71.0348 282.296 72.2348 281.168 73.7948 281.168C75.3548 281.168 76.5548 282.296 76.5548 284C76.5548 285.704 75.3548 286.832 73.7948 286.832ZM89.2231 277.664C87.6391 277.664 86.4391 278.24 85.7911 279.128V278H82.1911V290H85.7911V283.448C85.7911 281.744 86.7031 280.976 88.0231 280.976C89.1751 280.976 90.1111 281.672 90.1111 283.16V290H93.7111V282.632C93.7111 279.392 91.6471 277.664 89.2231 277.664ZM97.9833 276.944C99.1593 276.944 100.143 275.96 100.143 274.784C100.143 273.608 99.1593 272.624 97.9833 272.624C96.8073 272.624 95.8233 273.608 95.8233 274.784C95.8233 275.96 96.8073 276.944 97.9833 276.944ZM96.1833 290H99.7833V278H96.1833V290ZM109.45 281.456V278H106.978V274.64L103.378 275.72V278H101.458V281.456H103.378V285.704C103.378 289.064 104.746 290.48 109.45 290V286.736C107.866 286.832 106.978 286.736 106.978 285.704V281.456H109.45ZM117.014 290.336C120.542 290.336 123.374 287.576 123.374 284C123.374 280.424 120.542 277.664 117.014 277.664C113.486 277.664 110.654 280.424 110.654 284C110.654 287.576 113.486 290.336 117.014 290.336ZM117.014 286.832C115.454 286.832 114.254 285.704 114.254 284C114.254 282.296 115.454 281.168 117.014 281.168C118.574 281.168 119.774 282.296 119.774 284C119.774 285.704 118.574 286.832 117.014 286.832ZM129.01 280.136V278H125.41V290H129.01V284.576C129.01 282.2 131.122 281.6 132.61 281.84V277.76C131.098 277.76 129.49 278.528 129.01 280.136Z" fill="#15356E"/>
<path d="M478.988 411.065V407.369H468.788V424.169H472.628V418.001H478.868V414.305H472.628V411.065H478.988ZM489.848 412.169V413.297C489.056 412.385 487.88 411.833 486.272 411.833C483.128 411.833 480.536 414.593 480.536 418.169C480.536 421.745 483.128 424.505 486.272 424.505C487.88 424.505 489.056 423.953 489.848 423.041V424.169H493.448V412.169H489.848ZM486.992 421.097C485.336 421.097 484.136 419.969 484.136 418.169C484.136 416.369 485.336 415.241 486.992 415.241C488.648 415.241 489.848 416.369 489.848 418.169C489.848 419.969 488.648 421.097 486.992 421.097ZM501.85 424.505C504.202 424.505 506.242 423.281 507.274 421.409L504.13 419.609C503.746 420.449 502.858 420.953 501.802 420.953C500.242 420.953 499.09 419.825 499.09 418.169C499.09 416.513 500.242 415.385 501.802 415.385C502.858 415.385 503.722 415.889 504.13 416.729L507.274 414.905C506.242 413.057 504.178 411.833 501.85 411.833C498.202 411.833 495.49 414.593 495.49 418.169C495.49 421.745 498.202 424.505 501.85 424.505ZM510.522 411.113C511.698 411.113 512.682 410.129 512.682 408.953C512.682 407.777 511.698 406.793 510.522 406.793C509.346 406.793 508.362 407.777 508.362 408.953C508.362 410.129 509.346 411.113 510.522 411.113ZM508.722 424.169H512.322V412.169H508.722V424.169ZM514.957 424.169H518.557V406.649H514.957V424.169ZM522.991 411.113C524.167 411.113 525.151 410.129 525.151 408.953C525.151 407.777 524.167 406.793 522.991 406.793C521.815 406.793 520.831 407.777 520.831 408.953C520.831 410.129 521.815 411.113 522.991 411.113ZM521.191 424.169H524.791V412.169H521.191V424.169ZM534.457 415.625V412.169H531.985V408.809L528.385 409.889V412.169H526.465V415.625H528.385V419.873C528.385 423.233 529.753 424.649 534.457 424.169V420.905C532.873 421.001 531.985 420.905 531.985 419.873V415.625H534.457ZM544.973 412.169V413.297C544.181 412.385 543.005 411.833 541.397 411.833C538.253 411.833 535.661 414.593 535.661 418.169C535.661 421.745 538.253 424.505 541.397 424.505C543.005 424.505 544.181 423.953 544.973 423.041V424.169H548.573V412.169H544.973ZM542.117 421.097C540.461 421.097 539.261 419.969 539.261 418.169C539.261 416.369 540.461 415.241 542.117 415.241C543.773 415.241 544.973 416.369 544.973 418.169C544.973 419.969 543.773 421.097 542.117 421.097ZM558.247 415.625V412.169H555.775V408.809L552.175 409.889V412.169H550.255V415.625H552.175V419.873C552.175 423.233 553.543 424.649 558.247 424.169V420.905C556.663 421.001 555.775 420.905 555.775 419.873V415.625H558.247ZM563.266 419.609H571.786C571.882 419.153 571.93 418.673 571.93 418.169C571.93 414.545 569.338 411.833 565.834 411.833C562.042 411.833 559.45 414.593 559.45 418.169C559.45 421.745 561.994 424.505 566.098 424.505C568.378 424.505 570.154 423.665 571.33 422.033L568.45 420.377C567.97 420.905 567.13 421.289 566.146 421.289C564.826 421.289 563.722 420.857 563.266 419.609ZM563.194 416.921C563.53 415.697 564.442 415.025 565.81 415.025C566.89 415.025 567.97 415.529 568.354 416.921H563.194Z" fill="#15356E"/>
<path d="M890.686 458.336C893.758 458.336 896.446 456.824 897.886 454.448L894.574 452.528C893.854 453.824 892.39 454.592 890.686 454.592C887.71 454.592 885.79 452.6 885.79 449.6C885.79 446.6 887.71 444.608 890.686 444.608C892.39 444.608 893.83 445.376 894.574 446.672L897.886 444.752C896.422 442.376 893.734 440.864 890.686 440.864C885.622 440.864 881.95 444.656 881.95 449.6C881.95 454.544 885.622 458.336 890.686 458.336ZM905.443 458.336C908.971 458.336 911.803 455.576 911.803 452C911.803 448.424 908.971 445.664 905.443 445.664C901.915 445.664 899.083 448.424 899.083 452C899.083 455.576 901.915 458.336 905.443 458.336ZM905.443 454.832C903.883 454.832 902.683 453.704 902.683 452C902.683 450.296 903.883 449.168 905.443 449.168C907.003 449.168 908.203 450.296 908.203 452C908.203 453.704 907.003 454.832 905.443 454.832ZM927.28 445.664C925.576 445.664 924.472 446.288 923.8 447.248C923.128 446.24 922.072 445.664 920.656 445.664C919.048 445.664 917.992 446.288 917.44 447.104V446H913.84V458H917.44V451.232C917.44 449.816 918.112 448.976 919.312 448.976C920.464 448.976 921.04 449.744 921.04 450.944V458H924.64V451.232C924.64 449.816 925.312 448.976 926.512 448.976C927.664 448.976 928.24 449.744 928.24 450.944V458H931.84V450.632C931.84 447.632 930.04 445.664 927.28 445.664ZM947.74 445.664C946.036 445.664 944.932 446.288 944.26 447.248C943.588 446.24 942.532 445.664 941.116 445.664C939.508 445.664 938.452 446.288 937.9 447.104V446H934.3V458H937.9V451.232C937.9 449.816 938.572 448.976 939.772 448.976C940.924 448.976 941.5 449.744 941.5 450.944V458H945.1V451.232C945.1 449.816 945.772 448.976 946.972 448.976C948.124 448.976 948.7 449.744 948.7 450.944V458H952.3V450.632C952.3 447.632 950.5 445.664 947.74 445.664ZM962.513 446V452.552C962.513 454.256 961.601 455.024 960.281 455.024C959.129 455.024 958.193 454.328 958.193 452.84V446H954.593V453.368C954.593 456.608 956.657 458.336 959.081 458.336C960.665 458.336 961.865 457.76 962.513 456.872V458H966.113V446H962.513ZM975.786 445.664C974.202 445.664 973.002 446.24 972.354 447.128V446H968.754V458H972.354V451.448C972.354 449.744 973.266 448.976 974.586 448.976C975.738 448.976 976.674 449.672 976.674 451.16V458H980.274V450.632C980.274 447.392 978.21 445.664 975.786 445.664ZM984.546 444.944C985.722 444.944 986.706 443.96 986.706 442.784C986.706 441.608 985.722 440.624 984.546 440.624C983.37 440.624 982.386 441.608 982.386 442.784C982.386 443.96 983.37 444.944 984.546 444.944ZM982.746 458H986.346V446H982.746V458ZM994.74 458.336C997.092 458.336 999.132 457.112 1000.16 455.24L997.02 453.44C996.636 454.28 995.748 454.784 994.692 454.784C993.132 454.784 991.98 453.656 991.98 452C991.98 450.344 993.132 449.216 994.692 449.216C995.748 449.216 996.612 449.72 997.02 450.56L1000.16 448.736C999.132 446.888 997.068 445.664 994.74 445.664C991.092 445.664 988.38 448.424 988.38 452C988.38 455.576 991.092 458.336 994.74 458.336ZM1010.09 446V447.128C1009.3 446.216 1008.12 445.664 1006.51 445.664C1003.37 445.664 1000.78 448.424 1000.78 452C1000.78 455.576 1003.37 458.336 1006.51 458.336C1008.12 458.336 1009.3 457.784 1010.09 456.872V458H1013.69V446H1010.09ZM1007.23 454.928C1005.58 454.928 1004.38 453.8 1004.38 452C1004.38 450.2 1005.58 449.072 1007.23 449.072C1008.89 449.072 1010.09 450.2 1010.09 452C1010.09 453.8 1008.89 454.928 1007.23 454.928ZM1023.36 449.456V446H1020.89V442.64L1017.29 443.72V446H1015.37V449.456H1017.29V453.704C1017.29 457.064 1018.66 458.48 1023.36 458V454.736C1021.78 454.832 1020.89 454.736 1020.89 453.704V449.456H1023.36ZM1028.38 453.44H1036.9C1037 452.984 1037.05 452.504 1037.05 452C1037.05 448.376 1034.46 445.664 1030.95 445.664C1027.16 445.664 1024.57 448.424 1024.57 452C1024.57 455.576 1027.11 458.336 1031.22 458.336C1033.5 458.336 1035.27 457.496 1036.45 455.864L1033.57 454.208C1033.09 454.736 1032.25 455.12 1031.26 455.12C1029.94 455.12 1028.84 454.688 1028.38 453.44ZM1028.31 450.752C1028.65 449.528 1029.56 448.856 1030.93 448.856C1032.01 448.856 1033.09 449.36 1033.47 450.752H1028.31Z" fill="#15356E"/>
<path fill-rule="evenodd" clip-rule="evenodd" d="M115.414 252.623H64.2895C62.1627 252.623 60.4376 250.939 60.4376 248.863V141.76C60.4376 139.684 62.1627 138 64.2895 138H115.415C117.542 138 119.267 139.684 119.267 141.76V248.863C119.267 250.939 117.542 252.623 115.414 252.623Z" stroke="#182E40" stroke-width="3.65469"/>
<path d="M60.4357 149.702H119.267" stroke="#182E40" stroke-width="2.03038"/>
<path d="M60.4357 240.975H119.267" stroke="#182E40" stroke-width="2.03038"/>
<path d="M85.2623 245.811H94.4425" stroke="black" stroke-width="2.03038" stroke-linecap="round"/>
<path d="M2 191.412L37.4967 191.763" stroke="#0C9DE0" stroke-width="2.03038" stroke-linecap="round"/>
<path d="M30.493 164.423L46.1051 175.919" stroke="#0C9DE0" stroke-width="2.03038" stroke-linecap="round"/>
<path d="M27.2168 219.947L42.9455 208.67" stroke="#0C9DE0" stroke-width="2.03038" stroke-linecap="round"/>
<path fill-rule="evenodd" clip-rule="evenodd" d="M97.9865 206.717H96.0185C89.0071 206.717 83.3039 201.15 83.3039 194.306V169.261C83.3039 162.417 89.0071 156.85 96.0185 156.85H142.514C149.526 156.85 155.229 162.417 155.229 169.261V194.306C155.229 201.15 149.526 206.717 142.514 206.717H119.893L97.8507 216.938L97.9865 206.717Z" fill="white"/>
<mask id="mask0_350_84" style="mask-type:alpha" maskUnits="userSpaceOnUse" x="80" y="154" width="78" height="68">
<path d="M80.5307 154.144H158V221.247H80.5307V154.144Z" fill="white"/>
</mask>
<g mask="url(#mask0_350_84)">
<path fill-rule="evenodd" clip-rule="evenodd" d="M142.514 154.144H96.0185C87.479 154.144 80.5307 160.926 80.5307 169.261V194.307C80.5307 202.366 87.0257 208.974 95.1769 209.402L95.1349 212.557L95.0182 221.247L103.06 217.517L120.516 209.422H142.512C151.052 209.422 158 202.64 158 194.305V169.261C158.002 160.926 151.054 154.144 142.514 154.144ZM142.514 159.558C148.005 159.558 152.456 163.902 152.456 169.261V194.307C152.456 199.666 148.005 204.01 142.514 204.01H119.267L100.681 212.628L100.796 204.01H96.0185C90.5276 204.01 86.0771 199.666 86.0771 194.307V169.261C86.0771 163.902 90.5276 159.558 96.0185 159.558H142.514Z" fill="#15356E"/>
</g>
<path fill-rule="evenodd" clip-rule="evenodd" d="M118.73 165.242L100.668 195.698C100.429 196.101 100.727 196.605 101.203 196.605H137.327C137.806 196.605 138.104 196.101 137.863 195.698L119.801 165.242C119.564 164.841 118.969 164.841 118.73 165.242Z" fill="#0C9DE0"/>
<path fill-rule="evenodd" clip-rule="evenodd" d="M118.206 190.849H120.312V188.734H118.206V190.849ZM117.925 176.017H120.57L119.763 187.186H118.713L117.925 176.017Z" fill="white"/>
<path fill-rule="evenodd" clip-rule="evenodd" d="M519.712 337.343C533.702 337.343 545.044 348.393 545.044 362.023C545.044 375.654 533.702 386.704 519.712 386.704C505.721 386.704 494.38 375.654 494.38 362.023C494.38 348.393 505.721 337.343 519.712 337.343Z" stroke="#15356E" stroke-width="6.09752" stroke-linecap="round"/>
<path fill-rule="evenodd" clip-rule="evenodd" d="M477.852 285.121H460.09C456.173 285.121 453 282.027 453 278.213V260.908C453 257.092 456.175 254 460.09 254H477.852C481.768 254 484.942 257.094 484.942 260.908V278.213C484.944 282.029 481.768 285.121 477.852 285.121Z" stroke="#182E40" stroke-width="3.78467" stroke-linecap="round"/>
<path fill-rule="evenodd" clip-rule="evenodd" d="M528.88 285.121H511.118C507.202 285.121 504.028 282.027 504.028 278.213V260.908C504.028 257.092 507.204 254 511.118 254H528.88C532.797 254 535.97 257.094 535.97 260.908V278.213C535.972 282.029 532.797 285.121 528.88 285.121Z" stroke="#182E40" stroke-width="3.78467" stroke-linecap="round"/>
<path fill-rule="evenodd" clip-rule="evenodd" d="M579.91 285.533H562.148C558.232 285.533 555.058 282.439 555.058 278.625V261.32C555.058 257.504 558.234 254.412 562.148 254.412H579.91C583.827 254.412 587 257.506 587 261.32V278.625C587 282.439 583.825 285.533 579.91 285.533Z" stroke="#182E40" stroke-width="3.78467" stroke-linecap="round"/>
<path d="M506.224 330.314C506.224 317.912 489.488 291.886 476.27 291.886" stroke="#0C9DE0" stroke-width="2.10259" stroke-linecap="round"/>
<path d="M533.073 329.867C533.073 317.465 550.744 291.886 563.962 291.886" stroke="#0C9DE0" stroke-width="2.10259" stroke-linecap="round"/>
<path d="M519.712 291.883V327.632" stroke="#0C9DE0" stroke-width="2.10259" stroke-linecap="round"/>
<path d="M506.225 330.315L501.75 327.965" stroke="#0C9DE0" stroke-width="2.10259" stroke-linecap="round"/>
<path d="M533.073 330.03L537.204 326.959" stroke="#0C9DE0" stroke-width="2.10259" stroke-linecap="round"/>
<path d="M506.225 330.335L509.552 326.065" stroke="#0C9DE0" stroke-width="2.10259" stroke-linecap="round"/>
<path d="M532.82 329.866L529.516 325.619" stroke="#0C9DE0" stroke-width="2.10259" stroke-linecap="round"/>
<path d="M515.863 324.389L519.712 327.634" stroke="#0C9DE0" stroke-width="2.10259" stroke-linecap="round"/>
<path d="M523.551 324.166L519.712 327.634" stroke="#0C9DE0" stroke-width="2.10259" stroke-linecap="round"/>
<mask id="mask1_350_84" style="mask-type:alpha" maskUnits="userSpaceOnUse" x="890" y="303" width="137" height="119">
<path d="M890 303.239H1026.35V421.947H890V303.239Z" fill="white"/>
</mask>
<g mask="url(#mask1_350_84)">
<path fill-rule="evenodd" clip-rule="evenodd" d="M998.431 363.643C991.808 370.083 985.182 376.524 978.569 382.976C978.165 383.37 977.86 383.862 977.331 384.532C976.337 383.486 975.633 382.769 974.956 382.027C974.069 381.052 972.989 380.815 971.705 381.07C967.344 381.928 963.345 381.06 959.694 378.609C959.552 378.512 959.425 378.398 959.168 378.198C959.554 378.087 959.816 377.97 960.091 377.938C969.681 376.865 977.949 373.044 984.869 366.524C989.141 362.497 993.297 358.36 997.508 354.271C997.846 353.945 998.197 353.631 998.629 353.232C999.516 354.969 999.928 356.722 1000.21 358.498C1000.68 361.488 1000.64 361.491 998.431 363.643ZM956.351 372.984C952.433 373.108 951.253 373.345 947.913 374.852C942.774 369.853 937.679 364.894 932.574 359.928C935.95 358.421 937.862 355.659 938.142 351.87C943.654 351.278 946.578 348.273 947.218 343.117C953.308 341.818 955.153 340.025 956.242 334.297C960.167 333.948 963.221 332.184 964.609 328.418C965.989 324.666 964.939 321.381 961.99 318.618C962.178 318.388 962.298 318.21 962.448 318.062C965.333 315.25 968.221 312.44 971.112 309.633C972.124 308.651 973.324 308.193 974.745 308.537C977.58 309.225 978.551 312.44 976.517 314.57C974.857 316.308 973.08 317.943 971.359 319.63C971.046 319.937 970.718 320.233 970.454 320.577C969.605 321.69 969.721 323.043 970.721 323.983C971.682 324.886 973.006 324.982 974.122 324.196C974.478 323.946 974.789 323.627 975.104 323.323C976.868 321.619 978.574 319.855 980.405 318.22C982.581 316.279 985.935 317.327 986.557 320.095C986.883 321.539 986.29 322.697 985.248 323.704C982.568 326.291 979.906 328.89 977.242 331.489C976.929 331.794 976.601 332.095 976.347 332.447C975.592 333.49 975.734 334.893 976.647 335.766C977.547 336.627 979.017 336.738 980.062 335.993C980.417 335.741 980.728 335.425 981.043 335.12C983.715 332.528 986.39 329.939 989.046 327.332C990.13 326.268 991.391 325.764 992.906 326.14C995.42 326.763 996.486 329.669 994.965 331.729C994.658 332.147 994.264 332.509 993.89 332.875C991.256 335.444 988.624 338.014 985.975 340.569C985.317 341.205 984.831 341.915 984.892 342.84C984.958 343.804 985.426 344.573 986.346 345.011C987.254 345.441 988.162 345.392 989.003 344.858C989.369 344.625 989.677 344.296 989.99 343.992C992.662 341.4 995.331 338.803 997.996 336.206C998.769 335.452 999.62 334.88 1000.77 334.836C1002.29 334.777 1003.45 335.38 1004.2 336.641C1004.99 337.962 1004.88 339.293 1003.98 340.537C1003.71 340.923 1003.35 341.259 1003 341.593C996.005 348.407 988.991 355.204 982.007 362.032C976.156 367.751 969.182 371.34 960.983 372.603C959.46 372.841 957.899 372.935 956.351 372.984ZM937.593 383.721C931.443 377.728 925.178 371.624 919.015 365.619C920.808 363.875 922.73 362.008 924.576 360.215C930.721 366.193 936.993 372.294 943.143 378.277C941.379 380.004 939.487 381.861 937.593 383.721ZM920.693 343.792C922.17 342.303 924.41 342.253 926.04 343.772C927.957 345.558 929.831 347.393 931.669 349.258C932.816 350.423 933.09 351.828 932.373 353.312C931.71 354.682 930.55 355.369 928.852 355.609C928.021 355.176 927.052 354.885 926.381 354.284C924.461 352.565 922.631 350.747 920.823 348.914C919.315 347.381 919.3 345.194 920.693 343.792ZM925.832 331.133C927.283 329.706 929.521 329.632 931.087 331.116C934.328 334.185 937.517 337.312 940.687 340.45C941.854 341.605 942.113 343.02 941.409 344.509C940.753 345.892 939.584 346.569 937.476 346.594C937.054 346.376 936.067 346.097 935.411 345.484C932.185 342.459 929.025 339.369 925.893 336.253C924.377 334.744 924.405 332.536 925.832 331.133ZM935.803 321.683C937.13 321.022 938.462 321.121 939.698 321.967C939.95 322.14 940.178 322.351 940.397 322.563C943.412 325.489 946.42 328.42 949.435 331.344C950.252 332.135 950.819 333.028 950.796 334.193C950.76 335.65 950.107 336.777 948.752 337.421C947.409 338.056 946.069 337.94 944.862 337.067C944.368 336.711 943.949 336.251 943.509 335.823C940.748 333.139 937.995 330.448 935.226 327.772C934.41 326.983 933.827 326.113 933.822 324.948C933.812 323.469 934.468 322.348 935.803 321.683ZM944.668 312.878C946.219 311.411 948.698 311.446 950.206 312.954L959.425 322.185C960.932 323.694 960.897 326.105 959.346 327.572C958.586 328.292 957.602 328.648 956.618 328.648C955.596 328.648 954.576 328.262 953.808 327.493L944.59 318.262C943.082 316.753 943.118 314.342 944.668 312.878ZM1024.66 380.323C1018.71 374.505 1012.75 368.698 1006.76 362.915C1006.12 362.297 1005.83 361.681 1005.77 360.791C1005.67 359.203 1005.52 357.588 1005.11 356.054C1004.5 353.732 1003.66 351.466 1002.83 348.904C1004.35 347.47 1006.14 345.961 1007.71 344.274C1012.31 339.35 1009.79 331.494 1003.15 329.899C1002.48 329.736 1001.78 329.657 1001.06 329.533C1000.88 327.179 1000.1 325.111 998.392 323.441C996.656 321.745 994.518 320.924 992.067 320.797C991.444 315.462 988.408 312.519 983.107 311.945C982.815 310.82 982.66 309.737 982.258 308.75C979.884 302.943 972.294 301.374 967.601 305.74C964.746 308.396 961.998 311.164 959.198 313.877C958.863 314.201 958.507 314.508 957.998 314.97C957.65 314.552 957.401 314.189 957.091 313.887C955.553 312.391 954.073 310.825 952.436 309.44C949.72 307.142 946.547 306.657 943.227 307.919C939.95 309.165 938.068 311.602 937.578 315.02C937.529 315.349 937.445 315.675 937.382 315.989C931.928 316.613 928.961 319.576 928.364 324.745C921.481 325.239 917.495 331.571 920.416 337.883C920.274 337.97 920.137 338.088 919.976 338.148C913.918 340.455 912.329 348.296 917.261 352.8C918.199 353.655 919.089 354.563 919.992 355.456C920.226 355.688 920.421 355.958 920.77 356.369C920.358 356.688 919.979 356.925 919.666 357.229C910.305 366.326 900.949 375.428 891.593 384.532C891.247 384.869 890.886 385.195 890.591 385.571C889.727 386.674 889.823 388.044 890.797 388.982C891.771 389.919 893.172 390.006 894.308 389.167C894.659 388.907 894.966 388.588 895.279 388.284C901.467 382.269 907.651 376.249 913.839 370.234C914.169 369.912 914.523 369.616 914.691 369.462C921.054 375.651 927.324 381.75 933.891 388.138C933.563 388.349 933.052 388.569 932.683 388.927C923.19 398.14 913.709 407.366 904.229 416.594C903.883 416.93 903.524 417.259 903.227 417.633C902.416 418.652 902.474 420.046 903.336 420.959C904.231 421.909 905.744 422.077 906.845 421.296C907.307 420.967 907.704 420.549 908.111 420.153C921.301 407.326 934.483 394.495 947.681 381.673C948.401 380.976 949.214 380.367 949.987 379.724C950.569 379.237 951.098 379.264 951.754 379.709C953.536 380.919 955.375 382.051 957.192 383.211C961.23 385.791 965.646 386.946 970.464 386.461C971.491 386.357 972.18 386.637 972.902 387.344C984.213 398.393 995.555 409.414 1006.89 420.437C1007.27 420.803 1007.64 421.184 1008.08 421.476C1009.15 422.198 1010.45 422.072 1011.37 421.216C1012.33 420.324 1012.49 419.003 1011.72 417.917C1011.42 417.497 1011.03 417.13 1010.65 416.764C1004.35 410.621 998.034 404.484 991.726 398.343C991.388 398.014 991.07 397.668 990.653 397.24C991.452 396.486 992.219 395.833 992.893 395.096C993.292 394.658 993.666 394.126 993.824 393.572C994.144 392.452 993.603 391.371 992.608 390.807C991.627 390.248 990.43 390.327 989.517 391.114C988.627 391.878 987.806 392.719 987.107 393.382C985.108 391.448 983.181 389.585 981.513 387.973C988.678 381 995.944 373.929 1003.05 367.016C1004.8 368.735 1006.7 370.588 1008.7 372.537C1008.06 373.123 1007.29 373.776 1006.58 374.486C1005.3 375.769 1005.24 377.295 1006.39 378.379C1007.53 379.45 1009 379.405 1010.29 378.173C1011.05 377.451 1011.7 376.63 1012.59 375.643C1013.68 376.803 1014.52 377.75 1015.42 378.641C1017.48 380.674 1019.54 382.702 1021.64 384.686C1023.15 386.113 1024.85 385.905 1026.03 384.233C1026.13 384.097 1026.24 383.976 1026.35 383.847V382.291C1025.79 381.633 1025.28 380.926 1024.66 380.323Z" fill="#182E40"/>
</g>
<path d="M898.068 291.823L912.42 305.976" stroke="#0C9DE0" stroke-width="3.54864" stroke-linecap="round"/>
<path d="M924.759 289.244V301.691" stroke="#0C9DE0" stroke-width="2.83892" stroke-linecap="round"/>
<path d="M892.526 317.39H905.243" stroke="#0C9DE0" stroke-width="2.83892" stroke-linecap="round"/>
<path d="M1025.86 294.166L1011.59 308.385" stroke="#0C9DE0" stroke-width="3.54864" stroke-linecap="round"/>
<path d="M1030 320.109L1017.21 320.345" stroke="#0C9DE0" stroke-width="2.83892" stroke-linecap="round"/>
<path d="M1000.45 290.87L1001.83 303.241" stroke="#0C9DE0" stroke-width="2.83892" stroke-linecap="round"/>
<line x1="520.5" y1="55" x2="520.5" y2="236" stroke="#2A2B2C" stroke-dasharray="2 2"/>
<line x1="388.224" y1="55.4472" x2="188.224" y2="155.447" stroke="#2A2B2C" stroke-dasharray="2 2"/>
<line x1="652.303" y1="54.6021" x2="932.303" y2="267.602" stroke="#2A2B2C" stroke-dasharray="2 2"/>
<path fill-rule="evenodd" clip-rule="evenodd" d="M627.776 17.0652V15.9367H628.563C628.956 15.9367 629.427 15.9929 629.427 16.4593C629.427 17.0189 628.995 17.0652 628.505 17.0652H627.776ZM630.08 16.5056C630.08 15.7223 629.59 15.3957 628.63 15.3957H627.123V19.2579H627.776V17.6064H628.39L629.417 19.2579H630.156L629.043 17.5599C629.638 17.4946 630.08 17.2054 630.08 16.5056ZM628.486 20.1438C626.777 20.1438 625.721 18.8472 625.721 17.2615C625.721 15.5635 626.931 14.3789 628.486 14.3789C630.022 14.3789 631.232 15.5635 631.232 17.2615C631.232 18.9684 630.022 20.1438 628.486 20.1438ZM628.486 13.7723C626.585 13.7723 624.953 15.1627 624.953 17.2615C624.953 19.2485 626.422 20.7504 628.486 20.7504C630.368 20.7504 632 19.3604 632 17.2615C632 15.1627 630.368 13.7723 628.486 13.7723ZM604.09 40.6367H604.017C600.675 40.6367 598.729 38.1179 598.729 34.3284C598.718 29.3297 601.56 21.3031 607.219 21.3031C611.113 21.3031 612.458 24.4398 612.458 27.4514C612.458 32.9598 609.429 40.6367 604.09 40.6367ZM608.564 13.9418C596.644 13.9418 588.515 23.2496 588.515 34.5256C588.515 42.6526 594.23 48 602.765 48H602.834C614.38 48 622.818 39.2849 622.818 27.3742C622.818 19.9226 617.585 13.9418 608.564 13.9418ZM569.248 47.2675H579.178L588.484 0H578.541L569.248 47.2675ZM554.641 29.0395C553.158 37.0035 549.452 40.2234 546.54 40.2234C543.838 40.2234 542.505 38.0485 542.514 34.8546C542.519 28.85 547.123 21.2737 553.469 21.2737C554.455 21.2737 555.31 21.3842 556.064 21.5512L554.641 29.0395ZM532.153 36.645C532.153 43.4574 536.304 48 542.316 48C546.205 48 550.499 46.24 553.654 40.8437H553.821C553.645 43.1486 553.46 45.3669 553.383 47.2675H562.508C562.393 43.1947 563.036 36.7894 563.857 32.6248L567.224 15.5846C564.5 14.7074 560.199 13.9418 556.187 13.9418C539.656 13.9418 532.153 25.6757 532.153 36.645ZM508.275 40.6992C505.985 40.6992 504.599 39.4412 504.516 37.1498C504.427 35.7553 504.664 34.5714 504.888 33.5078L505.443 30.86C506.609 25.22 510.124 21.7797 513.622 21.7797C516.618 21.7797 517.98 24.197 517.98 27.3391C517.98 32.9932 513.93 40.6992 508.275 40.6992ZM518.279 13.9418C514.144 13.9418 510.421 15.7175 507.959 18.5592L507.822 18.5526L511.757 0H501.798L494.989 32.8896C494.566 34.843 494.244 36.8619 494.244 38.8688C494.204 44.682 498.206 48 506.208 48C521.263 48 528.403 35.8909 528.403 25.3124C528.403 19.4952 525.265 13.9418 518.279 13.9418ZM481.194 23.7463C481.194 26.6984 477.385 27.7267 469.742 27.6506C470.391 24.6772 473.032 21.0087 477.593 21.0087C479.811 21.0087 481.194 22.1411 481.194 23.6829V23.7463ZM478.806 13.9418C466.673 13.9418 459.266 24.2776 459.266 34.178C459.266 42.7034 464.206 47.9668 473.799 47.9668C477.518 47.9668 482.431 47.3152 486.356 45.3991L485.664 38.4118C482.993 39.6835 479.847 40.4736 476.249 40.4736C473.371 40.4736 471.147 39.6335 469.853 38.0083C469.158 37.0834 468.81 35.6321 468.779 34.7043C482.226 35.0558 490.522 32.0097 490.522 23.7463C490.51 17.664 485.627 13.9418 478.806 13.9418ZM454.024 2.39782L446.114 22.2364C444.295 27.0852 442.57 31.9539 440.995 36.6107H440.858C441.107 32.1864 441.253 27.7092 441.309 22.3482L441.473 2.39782H430.526L422.346 22.3945C420.194 27.8303 418.52 32.4285 416.878 36.8472H416.738C416.899 32.7802 417.007 27.6632 417.051 22.2217L417.024 2.39782H407L408.764 47.2675H419.799L427.631 29.2564C429.941 23.717 431.55 18.8775 433.236 14.0425H433.382C433.082 19.1251 432.93 23.7071 432.992 28.9732L433.283 47.2675H444.14L464.468 2.39782H454.024Z" fill="#0C9DE0"/>
</svg>
